<svg width="72" height="72" viewBox="0 0 72 72" fill="none" xmlns="http://www.w3.org/2000/svg">
<path d="M68 38.6V66.6C68 67.4 67.4 67.9 66.7 67.9H56.3C55.6 67.9 55 67.3 55 66.6V44C54.7 33.4 38.3 33.4 38 44V66.7C38 67.4 37.4 68 36.7 68H26.3C25.6 68 25 67.4 25 66.7V26.3C25 25.6 25.6 25 26.3 25H37.6C38.3 25 38.9 25.6 38.9 26.3V29.5C41.9 24.8 47.4 21.8 53.4 22.3C61.8 23.1 68 30.3 68 38.6ZM15.7 68H5.3C4.6 68 4 67.4 4 66.7V26.3C4 25.6 4.6 25 5.3 25H15.6C16.3 25 16.9 25.6 16.9 26.3V66.6C17 67.4 16.4 68 15.7 68ZM17 10.5C17 14.1 14.1 17 10.5 17C6.9 17 4 14.1 4 10.5C4 6.9 6.9 4 10.5 4C14.1 4 17 6.9 17 10.5Z" fill="#FEFBF6"/>
</svg>
