<svg width="72" height="72" viewBox="0 0 72 72" fill="none" xmlns="http://www.w3.org/2000/svg">
<path d="M35 68C22.7 68 8 62.1 8 34.1C8 4.3 34.8 4 35 4C59.2 4 64 25.5 64 25.7L58.1 26.9L61 26.3L58.1 27C58 26.3 54.3 10 35 10C34.2 10 14 10.4 14 34.1C14 62 29.8 62 35 62C42.9 62 54 57.5 54 47.6C54 43.7 52.6 40.9 49.6 39.3C47.9 49 41.3 52.6 35 52.6C28 52.6 23.2 46.8 23.2 41.4C23.2 36.7 26.8 31.1 37 31.1C38.6 31.1 41.1 31.1 43.8 31.5C43.5 29.5 42.7 28 41.6 27.1C39.2 25.1 35.6 25.6 35.5 25.6C35.3 25.6 35.2 25.6 35 25.6C34.9 25.6 32.1 25.7 29.1 28.6L24.9 24.3C29.2 20.1 33.6 19.7 34.7 19.6C35.9 19.5 41.3 19 45.4 22.5C48.2 24.9 49.7 28.4 49.9 33C55.2 35 59.9 39.1 59.9 47.7C60.1 60.8 47.2 68 35 68ZM37 37.1C32.1 37.1 29.2 38.7 29.2 41.4C29.2 43.8 31.6 46.6 35 46.6C38.6 46.6 42.8 44.9 43.8 37.6C41.9 37.2 39.6 37.1 37 37.1Z" fill="#FEFBF6"/>
</svg>
